<?xml version="1.0" encoding="UTF-8"?>
<svg width="120" height="120" viewBox="0 0 120 120" xmlns="http://www.w3.org/2000/svg">
  <!-- Neural network representation -->
  <g fill="none" stroke="#46dce1" stroke-width="1.2">
    <!-- Input layer -->
    <circle cx="20" cy="30" r="5" fill="#46dce110" />
    <circle cx="20" cy="60" r="5" fill="#46dce110" />
    <circle cx="20" cy="90" r="5" fill="#46dce110" />
    
    <!-- Hidden layer 1 -->
    <circle cx="50" cy="20" r="5" fill="#46dce110" />
    <circle cx="50" cy="50" r="5" fill="#46dce110" />
    <circle cx="50" cy="80" r="5" fill="#46dce110" />
    <circle cx="50" cy="110" r="5" fill="#46dce110" />
    
    <!-- Hidden layer 2 -->
    <circle cx="80" cy="30" r="5" fill="#46dce110" />
    <circle cx="80" cy="60" r="5" fill="#46dce110" />
    <circle cx="80" cy="90" r="5" fill="#46dce110" />
    
    <!-- Output layer -->
    <circle cx="110" cy="60" r="5" fill="#46dce110" />
    
    <!-- Connections from input to hidden layer 1 -->
    <line x1="20" y1="30" x2="50" y2="20" />
    <line x1="20" y1="30" x2="50" y2="50" />
    <line x1="20" y1="30" x2="50" y2="80" />
    
    <line x1="20" y1="60" x2="50" y2="20" />
    <line x1="20" y1="60" x2="50" y2="50" />
    <line x1="20" y1="60" x2="50" y2="80" />
    <line x1="20" y1="60" x2="50" y2="110" />
    
    <line x1="20" y1="90" x2="50" y2="50" />
    <line x1="20" y1="90" x2="50" y2="80" />
    <line x1="20" y1="90" x2="50" y2="110" />
    
    <!-- Connections from hidden layer 1 to hidden layer 2 -->
    <line x1="50" y1="20" x2="80" y2="30" />
    <line x1="50" y1="20" x2="80" y2="60" />
    
    <line x1="50" y1="50" x2="80" y2="30" />
    <line x1="50" y1="50" x2="80" y2="60" />
    <line x1="50" y1="50" x2="80" y2="90" />
    
    <line x1="50" y1="80" x2="80" y2="30" />
    <line x1="50" y1="80" x2="80" y2="60" />
    <line x1="50" y1="80" x2="80" y2="90" />
    
    <line x1="50" y1="110" x2="80" y2="60" />
    <line x1="50" y1="110" x2="80" y2="90" />
    
    <!-- Connections from hidden layer 2 to output -->
    <line x1="80" y1="30" x2="110" y2="60" />
    <line x1="80" y1="60" x2="110" y2="60" />
    <line x1="80" y1="90" x2="110" y2="60" />
    
    <!-- Data pulse animations -->
    <circle cx="35" cy="40" r="1.5" fill="#46dce1">
      <animate attributeName="cx" values="20;50" dur="2s" repeatCount="indefinite" />
      <animate attributeName="cy" values="30;50" dur="2s" repeatCount="indefinite" />
      <animate attributeName="opacity" values="0;1;0" dur="2s" repeatCount="indefinite" />
    </circle>
    
    <circle cx="65" cy="45" r="1.5" fill="#46dce1">
      <animate attributeName="cx" values="50;80" dur="1.5s" repeatCount="indefinite" />
      <animate attributeName="cy" values="50;30" dur="1.5s" repeatCount="indefinite" />
      <animate attributeName="opacity" values="0;1;0" dur="1.5s" repeatCount="indefinite" />
    </circle>
    
    <circle cx="95" cy="45" r="1.5" fill="#46dce1">
      <animate attributeName="cx" values="80;110" dur="1s" repeatCount="indefinite" />
      <animate attributeName="cy" values="30;60" dur="1s" repeatCount="indefinite" />
      <animate attributeName="opacity" values="0;1;0" dur="1s" repeatCount="indefinite" />
    </circle>
  </g>
</svg>
