<?xml version="1.0" encoding="UTF-8"?>
<svg width="120" height="120" viewBox="0 0 120 120" xmlns="http://www.w3.org/2000/svg">
  <!-- Blockchain nodes and connections -->
  <g fill="none" stroke="#46dce1" stroke-width="1.5">
    <!-- Central hexagon -->
    <polygon points="60,30 80,40 80,60 60,70 40,60 40,40" fill="#46dce120" stroke-width="2" />
    
    <!-- Connected nodes -->
    <circle cx="20" cy="20" r="10" fill="#46dce110" />
    <circle cx="100" cy="20" r="10" fill="#46dce110" />
    <circle cx="20" cy="100" r="10" fill="#46dce110" />
    <circle cx="100" cy="100" r="10" fill="#46dce110" />
    <circle cx="60" cy="100" r="10" fill="#46dce110" />
    
    <!-- Connections -->
    <line x1="40" y1="40" x2="20" y2="20" />
    <line x1="80" y1="40" x2="100" y2="20" />
    <line x1="40" y1="60" x2="20" y2="100" />
    <line x1="80" y1="60" x2="100" y2="100" />
    <line x1="60" y1="70" x2="60" y2="90" />
    
    <!-- Data flow animations -->
    <circle cx="30" cy="30" r="2">
      <animate attributeName="cx" from="40" to="20" dur="3s" repeatCount="indefinite" />
      <animate attributeName="cy" from="40" to="20" dur="3s" repeatCount="indefinite" />
    </circle>
    
    <circle cx="90" cy="30" r="2">
      <animate attributeName="cx" from="80" to="100" dur="4s" repeatCount="indefinite" />
      <animate attributeName="cy" from="40" to="20" dur="4s" repeatCount="indefinite" />
    </circle>
    
    <circle cx="30" cy="80" r="2">
      <animate attributeName="cx" from="40" to="20" dur="3.5s" repeatCount="indefinite" />
      <animate attributeName="cy" from="60" to="100" dur="3.5s" repeatCount="indefinite" />
    </circle>
    
    <circle cx="90" cy="80" r="2">
      <animate attributeName="cx" from="80" to="100" dur="2.5s" repeatCount="indefinite" />
      <animate attributeName="cy" from="60" to="100" dur="2.5s" repeatCount="indefinite" />
    </circle>
    
    <circle cx="60" cy="85" r="2">
      <animate attributeName="cy" from="70" to="90" dur="2s" repeatCount="indefinite" />
    </circle>
  </g>
</svg>
