<?xml version="1.0" encoding="UTF-8"?>
<svg width="300" height="300" viewBox="0 0 300 300" xmlns="http://www.w3.org/2000/svg">
  <!-- Circuit board pattern with nodes and connections -->
  <g fill="none" stroke="#46dce1" stroke-width="1" opacity="0.6">
    <!-- Horizontal lines -->
    <line x1="0" y1="50" x2="300" y2="50" />
    <line x1="0" y1="100" x2="300" y2="100" />
    <line x1="0" y1="150" x2="300" y2="150" />
    <line x1="0" y1="200" x2="300" y2="200" />
    <line x1="0" y1="250" x2="300" y2="250" />
    
    <!-- Vertical lines -->
    <line x1="50" y1="0" x2="50" y2="300" />
    <line x1="100" y1="0" x2="100" y2="300" />
    <line x1="150" y1="0" x2="150" y2="300" />
    <line x1="200" y1="0" x2="200" y2="300" />
    <line x1="250" y1="0" x2="250" y2="300" />
    
    <!-- Circuit nodes -->
    <circle cx="50" cy="50" r="3" fill="#46dce120" />
    <circle cx="150" cy="50" r="3" fill="#46dce120" />
    <circle cx="250" cy="50" r="3" fill="#46dce120" />
    
    <circle cx="100" cy="100" r="3" fill="#46dce120" />
    <circle cx="200" cy="100" r="3" fill="#46dce120" />
    
    <circle cx="50" cy="150" r="3" fill="#46dce120" />
    <circle cx="150" cy="150" r="3" fill="#46dce120" />
    <circle cx="250" cy="150" r="3" fill="#46dce120" />
    
    <circle cx="100" cy="200" r="3" fill="#46dce120" />
    <circle cx="200" cy="200" r="3" fill="#46dce120" />
    
    <circle cx="50" cy="250" r="3" fill="#46dce120" />
    <circle cx="150" cy="250" r="3" fill="#46dce120" />
    <circle cx="250" cy="250" r="3" fill="#46dce120" />
    
    <!-- Circuit components -->
    <!-- Resistor symbol at (100, 100) -->
    <path d="M85,100 L95,100 L97,96 L101,104 L105,96 L109,104 L113,96 L115,100 L125,100" />
    
    <!-- Capacitor symbol at (200, 100) -->
    <path d="M185,100 L195,100" />
    <path d="M195,90 L195,110" />
    <path d="M205,90 L205,110" />
    <path d="M205,100 L215,100" />
    
    <!-- IC chip at (150, 150) -->
    <rect x="135" y="135" width="30" height="30" rx="2" ry="2" fill="#46dce110" />
    <line x1="135" y1="142" x2="130" y2="142" />
    <line x1="135" y1="158" x2="130" y2="158" />
    <line x1="165" y1="142" x2="170" y2="142" />
    <line x1="165" y1="158" x2="170" y2="158" />
    
    <!-- Diode symbol at (100, 200) -->
    <path d="M85,200 L95,200" />
    <path d="M95,190 L95,210 L115,200 Z" fill="#46dce110" />
    <path d="M115,190 L115,210" />
    <path d="M115,200 L125,200" />
    
    <!-- Transistor symbol at (200, 200) -->
    <path d="M185,200 L195,200" />
    <path d="M195,185 L195,215" />
    <path d="M195,200 L215,190" />
    <path d="M195,200 L215,210" />
    <path d="M215,190 L215,210" />
    <path d="M215,200 L225,200" />
    
    <!-- Diagonal connections -->
    <path d="M50,50 L100,100" stroke-dasharray="5,5" />
    <path d="M150,50 L200,100" stroke-dasharray="5,5" />
    <path d="M100,100 L50,150" stroke-dasharray="5,5" />
    <path d="M200,100 L150,150" stroke-dasharray="5,5" />
    <path d="M50,150 L100,200" stroke-dasharray="5,5" />
    <path d="M150,150 L200,200" stroke-dasharray="5,5" />
    <path d="M100,200 L50,250" stroke-dasharray="5,5" />
    <path d="M200,200 L150,250" stroke-dasharray="5,5" />
    <path d="M250,50 L200,100" stroke-dasharray="5,5" />
    <path d="M250,150 L200,200" stroke-dasharray="5,5" />
    <path d="M200,200 L250,250" stroke-dasharray="5,5" />
  </g>
</svg>
