<?xml version="1.0" encoding="UTF-8"?>
<svg width="120" height="120" viewBox="0 0 120 120" xmlns="http://www.w3.org/2000/svg">
  <!-- Trustless system representation with lock, shield, and verification -->
  <g fill="none" stroke="#46dce1" stroke-width="1.2">
    <!-- Shield outline -->
    <path d="M60,15 L90,30 L90,60 C90,75 75,90 60,95 C45,90 30,75 30,60 L30,30 Z" fill="#46dce108" />
    
    <!-- Lock body -->
    <rect x="50" y="50" width="20" height="15" rx="2" ry="2" fill="#46dce115" />
    
    <!-- Lock shackle -->
    <path d="M55,50 L55,40 C55,35 65,35 65,40 L65,50" />
    
    <!-- Verification checkmark -->
    <path d="M55,58 L58,62 L65,55" stroke="#46dce1" stroke-width="1.5" />
    
    <!-- Nodes around the shield -->
    <circle cx="30" cy="30" r="5" fill="#46dce110" />
    <circle cx="90" cy="30" r="5" fill="#46dce110" />
    <circle cx="30" cy="60" r="5" fill="#46dce110" />
    <circle cx="90" cy="60" r="5" fill="#46dce110" />
    <circle cx="60" cy="95" r="5" fill="#46dce110" />
    
    <!-- Connection lines -->
    <line x1="30" y1="30" x2="90" y2="30" />
    <line x1="30" y1="30" x2="30" y2="60" />
    <line x1="90" y1="30" x2="90" y2="60" />
    <line x1="30" y1="60" x2="60" y2="95" />
    <line x1="90" y1="60" x2="60" y2="95" />
    
    <!-- Pulse animations -->
    <circle cx="60" cy="30" r="2" fill="#46dce1">
      <animate attributeName="cx" values="30;90" dur="3s" repeatCount="indefinite" />
      <animate attributeName="opacity" values="0;1;0" dur="3s" repeatCount="indefinite" />
    </circle>
    
    <circle cx="30" cy="45" r="2" fill="#46dce1">
      <animate attributeName="cy" values="30;60" dur="2s" repeatCount="indefinite" />
      <animate attributeName="opacity" values="0;1;0" dur="2s" repeatCount="indefinite" />
    </circle>
    
    <circle cx="90" cy="45" r="2" fill="#46dce1">
      <animate attributeName="cy" values="30;60" dur="2.5s" repeatCount="indefinite" />
      <animate attributeName="opacity" values="0;1;0" dur="2.5s" repeatCount="indefinite" />
    </circle>
    
    <circle cx="45" cy="77" r="2" fill="#46dce1">
      <animate attributeName="cx" values="30;60" dur="2.2s" repeatCount="indefinite" />
      <animate attributeName="cy" values="60;95" dur="2.2s" repeatCount="indefinite" />
      <animate attributeName="opacity" values="0;1;0" dur="2.2s" repeatCount="indefinite" />
    </circle>
    
    <circle cx="75" cy="77" r="2" fill="#46dce1">
      <animate attributeName="cx" values="90;60" dur="2.7s" repeatCount="indefinite" />
      <animate attributeName="cy" values="60;95" dur="2.7s" repeatCount="indefinite" />
      <animate attributeName="opacity" values="0;1;0" dur="2.7s" repeatCount="indefinite" />
    </circle>
  </g>
</svg>
